<svg width="458" height="507" fill="none" xmlns="http://www.w3.org/2000/svg"><ellipse cx="235.5" cy="252.5" rx="170.5" ry="155.5" fill="#4E0505"/><ellipse cx="105.5" cy="122" rx="59.5" ry="63" fill="#4E0505"/><ellipse cx="367.5" cy="122" rx="59.5" ry="63" fill="#4E0505"/><ellipse cx="236" cy="290.5" rx="62" ry="67.5" fill="#E1E1E1"/><ellipse cx="235.5" cy="238.5" rx="27.5" ry="20.5" fill="#100F0F"/><ellipse cx="174" cy="206.5" rx="30" ry="25.5" fill="#fff"/><ellipse cx="298" cy="206.5" rx="30" ry="25.5" fill="#fff"/><ellipse cx="184.5" cy="196.5" rx="10.5" ry="11.5" fill="#280505"/><ellipse cx="287.5" cy="217.5" rx="10.5" ry="11.5" fill="#280505"/><ellipse cx="286.5" cy="223.5" rx="3.5" ry="4.5" fill="#FEFEFE"/><ellipse cx="248.762" cy="213.352" rx="17.5" ry="7.5" transform="rotate(-13.403 248.762 213.352)" fill="#E9E7E7"/><ellipse cx="188.5" cy="192.5" rx="3.5" ry="4.5" fill="#FEFEFE"/><ellipse cx="236" cy="318.5" rx="14" ry="21.5" fill="#BF1C1C"/><ellipse cx="106" cy="128" rx="30" ry="31" fill="#605A5A"/><ellipse cx="368" cy="128" rx="30" ry="31" fill="#605A5A"/><ellipse cx="243.5" cy="223" rx="33.5" ry="9" fill="#FEF408" fill-opacity=".92"/><path d="M228 230l-5.56 15.237" stroke="#F1EB60" stroke-opacity=".92" stroke-width="2"/><path stroke="#F1EB60" stroke-width="2" d="M245 231v14m9.94-17.342l4 11"/><ellipse cx="217.411" cy="221.659" rx="13.254" ry="8.508" transform="rotate(-20.793 217.411 221.659)" fill="#181811" fill-opacity=".92"/><path d="M229.334 217.132c.753 1.983.206 4.319-1.428 6.527-1.631 2.203-4.307 4.217-7.652 5.487-3.346 1.27-6.684 1.541-9.366.975-2.688-.567-4.647-1.951-5.4-3.935-.753-1.983-.207-4.319 1.428-6.527 1.63-2.203 4.306-4.216 7.652-5.487 3.346-1.27 6.683-1.54 9.365-.975 2.688.567 4.648 1.952 5.401 3.935z" stroke="#FEF408" stroke-opacity=".92"/><path d="M236 215c.439.914 1.261 2.364 1.486 3.375.141.634.484.871.764 1.5.609 1.37.5 2.728.5 4.222 0 1.115-1.51 2.036-1.944 3.014-.256.576-.404 1.075-.862 1.583-.373.416-.18 1.299-.694 1.556m9-15.25c1.024 2.244 2.865 4.18 3 6.75.06 1.147.937 2.331.444 3.5-.533 1.267-1.022 1.626-1.944 2.5-.855.81-1.045 2.113-2 2.75m9.75-14.75c2.452 2.569 4.046 7.228 3.236 10.875-.193.869-1.474 1.89-2.097 2.514-.51.51-1.639 1.665-1.639 2.361m10.75-14.75c1.453 1.419 4.071 2.522 4.625 4.625.287 1.089.375 1.991.375 3.125 0 1.065-.87 1.8-1.25 2.75-.308.77-1.467 2.489-2.25 2.75" stroke="#000" stroke-linecap="round" stroke-linejoin="round"/><path d="M264 218c3.313 1.479 4.25 3.726 4.25 7.083 0 1.388-1.029 3.946-2 4.917m7-12c1.034 1.379 2.505 3.554 1.944 5.444-.284.961-.465 2.643-1.444 2.056m-69.25 1c-1.577.886-3.157 1.653-4.639 2.694-1.122.789-2.585.944-3.75 1.75-1.594 1.104-3.486 1.512-5.25 2.362-1.141.549-2.496.424-3.555 1-1.297.704-2.936 1.267-4.389 1.583-1.399.304-2.635.988-4.028 1.361-.621.166-2.612.446-2.889 1m34.25-8.25c-.863 2.894-2.235 5.625-3.486 8.361-.79 1.727-1.479 3.418-2.514 5.028-.639.994-.4 1.875-.639 3-.475 2.238-1.507 4.191-1.917 6.361-.231 1.228-.944 2.173-.944 3.486 0 .521.079.764-.5.764" stroke="#000" stroke-linecap="round" stroke-linejoin="round"/><ellipse cx="255.168" cy="226.798" rx="23.5" ry="6" transform="rotate(9.504 255.168 226.798)" fill="#E9E7E7" fill-opacity=".92"/></svg>