<svg xmlns="http://www.w3.org/2000/svg" xmlns:xlink="http://www.w3.org/1999/xlink"><defs><clipPath id="clip0"><path fill="#fff" d="M0 0h101v18H0z"/></clipPath><clipPath id="clip0"><path fill="#fff" d="M0 0h202v60H0z"/></clipPath><clipPath id="clip0"><path fill="#fff" d="M0 0h33.32v37.61H0z"/></clipPath><clipPath id="clip1"><path fill="#fff" transform="translate(90 13)" d="M0 0h101v18H0z"/></clipPath><clipPath id="clip0"><path fill="#fff" d="M0 0h174v51.683H0z"/></clipPath></defs><symbol id="Beare"><ellipse cx="235.5" cy="252.5" rx="170.5" ry="155.5" fill="#4E0505"/><ellipse cx="105.5" cy="122" rx="59.5" ry="63" fill="#4E0505"/><ellipse cx="367.5" cy="122" rx="59.5" ry="63" fill="#4E0505"/><ellipse cx="236" cy="290.5" rx="62" ry="67.5" fill="#E1E1E1"/><ellipse cx="235.5" cy="238.5" rx="27.5" ry="20.5" fill="#100F0F"/><ellipse cx="174" cy="206.5" rx="30" ry="25.5" fill="#fff"/><ellipse cx="298" cy="206.5" rx="30" ry="25.5" fill="#fff"/><ellipse cx="184.5" cy="196.5" rx="10.5" ry="11.5" fill="#280505"/><ellipse cx="287.5" cy="217.5" rx="10.5" ry="11.5" fill="#280505"/><ellipse cx="286.5" cy="223.5" rx="3.5" ry="4.5" fill="#FEFEFE"/><ellipse cx="248.762" cy="213.352" rx="17.5" ry="7.5" transform="rotate(-13.403 248.762 213.352)" fill="#E9E7E7"/><ellipse cx="188.5" cy="192.5" rx="3.5" ry="4.5" fill="#FEFEFE"/><ellipse cx="236" cy="318.5" rx="14" ry="21.5" fill="#BF1C1C"/><ellipse cx="106" cy="128" rx="30" ry="31" fill="#605A5A"/><ellipse cx="368" cy="128" rx="30" ry="31" fill="#605A5A"/><ellipse cx="243.5" cy="223" rx="33.5" ry="9" fill="#FEF408" fill-opacity=".92"/><path d="M228 230l-5.56 15.237" stroke="#F1EB60" stroke-opacity=".92" stroke-width="2"/><path stroke="#F1EB60" stroke-width="2" d="M245 231v14m9.94-17.342l4 11"/><ellipse cx="217.411" cy="221.659" rx="13.254" ry="8.508" transform="rotate(-20.793 217.411 221.659)" fill="#181811" fill-opacity=".92"/><path d="M229.334 217.132c.753 1.983.206 4.319-1.428 6.527-1.631 2.203-4.307 4.217-7.652 5.487-3.346 1.27-6.684 1.541-9.366.975-2.688-.567-4.647-1.951-5.4-3.935-.753-1.983-.207-4.319 1.428-6.527 1.63-2.203 4.306-4.216 7.652-5.487 3.346-1.27 6.683-1.54 9.365-.975 2.688.567 4.648 1.952 5.401 3.935z" stroke="#FEF408" stroke-opacity=".92"/><path d="M236 215c.439.914 1.261 2.364 1.486 3.375.141.634.484.871.764 1.5.609 1.37.5 2.728.5 4.222 0 1.115-1.51 2.036-1.944 3.014-.256.576-.404 1.075-.862 1.583-.373.416-.18 1.299-.694 1.556m9-15.25c1.024 2.244 2.865 4.18 3 6.75.06 1.147.937 2.331.444 3.5-.533 1.267-1.022 1.626-1.944 2.5-.855.81-1.045 2.113-2 2.75m9.75-14.75c2.452 2.569 4.046 7.228 3.236 10.875-.193.869-1.474 1.89-2.097 2.514-.51.51-1.639 1.665-1.639 2.361m10.75-14.75c1.453 1.419 4.071 2.522 4.625 4.625.287 1.089.375 1.991.375 3.125 0 1.065-.87 1.8-1.25 2.75-.308.77-1.467 2.489-2.25 2.75" stroke="#000" stroke-linecap="round" stroke-linejoin="round"/><path d="M264 218c3.313 1.479 4.25 3.726 4.25 7.083 0 1.388-1.029 3.946-2 4.917m7-12c1.034 1.379 2.505 3.554 1.944 5.444-.284.961-.465 2.643-1.444 2.056m-69.25 1c-1.577.886-3.157 1.653-4.639 2.694-1.122.789-2.585.944-3.75 1.75-1.594 1.104-3.486 1.512-5.25 2.362-1.141.549-2.496.424-3.555 1-1.297.704-2.936 1.267-4.389 1.583-1.399.304-2.635.988-4.028 1.361-.621.166-2.612.446-2.889 1m34.25-8.25c-.863 2.894-2.235 5.625-3.486 8.361-.79 1.727-1.479 3.418-2.514 5.028-.639.994-.4 1.875-.639 3-.475 2.238-1.507 4.191-1.917 6.361-.231 1.228-.944 2.173-.944 3.486 0 .521.079.764-.5.764" stroke="#000" stroke-linecap="round" stroke-linejoin="round"/><ellipse cx="255.168" cy="226.798" rx="23.5" ry="6" transform="rotate(9.504 255.168 226.798)" fill="#E9E7E7" fill-opacity=".92"/></symbol><symbol id="btn-close"><path transform="matrix(.68659 -.72705 .68659 .72705 2.002 20)" stroke="#000" stroke-width="1.5" d="M0-.75h24.758"/><path transform="matrix(.68659 .72705 -.68659 .72705 1 2)" stroke="#000" stroke-width="1.5" d="M0-.75h24.758"/></symbol><symbol id="btn-menu"><path stroke="#000" stroke-width="1.5" d="M0 1.25h24m-24 8h24m-24 8h24"/></symbol><symbol id="footer-logo"><g clip-path="url(#clip0)" fill="#111"><path d="M1.264 16.538A6.865 6.865 0 010 12.231V5.846a6.95 6.95 0 011.185-4.384C2.055.462 3.398 0 5.374 0s3.24.462 4.03 1.308a5.422 5.422 0 011.186 3.769v1.538H6.718V4.846a3.693 3.693 0 00-.238-1.538 1.12 1.12 0 00-.456-.473 1.163 1.163 0 00-.65-.143c-.553 0-.948.154-1.106.539a4.846 4.846 0 00-.237 1.692v8.23a3.111 3.111 0 00.316 1.616c.158.385.553.539 1.106.539s.87-.154 1.027-.539c.18-.52.26-1.067.238-1.615v-1.846h3.872v1.538a5.775 5.775 0 01-1.185 3.846c-.79.923-2.134 1.385-4.031 1.385-1.897-.077-3.32-.539-4.11-1.539zM15.253.23h4.504l3.32 17.54H19.44l-.632-3.693H16.2l-.632 3.692h-3.715l3.4-17.538zm3.24 11.54l-.948-6.847-.949 6.846h1.897zm7.35-8.616h-2.687V.23h9.404v2.846h-2.687v14.692h-4.03V3.154zM39.752.23h6.955v1.847h-4.505v5.77h3.635v1.768h-3.635v6.462h4.505v1.77h-7.034V.23h.079zm9.009 0H50.5l5.137 11.616V.231h2.055v17.538h-1.58l-5.217-12v12h-2.134V.231zm11.302 0h6.954v1.847h-4.504v5.77h3.635v1.768h-3.635v6.462h4.504v1.77h-6.954V.23zm9.009 0h3.635a6.451 6.451 0 014.03 1.078c.87.692 1.265 1.923 1.265 3.538 0 2.23-.71 3.616-2.212 4.077l2.528 8.77h-2.45l-2.37-8.231h-1.976v8.23h-2.529V.231h.079zm3.477 7.54a3.524 3.524 0 002.292-.616c.474-.385.711-1.154.711-2.308a4.848 4.848 0 00-.237-1.692 1.975 1.975 0 00-.869-.923 3.69 3.69 0 00-1.739-.308h-1.106v5.77h.948v.076zm8.614 8.692A7.613 7.613 0 0180.058 12V6.154a12.26 12.26 0 01.395-3.308 3.916 3.916 0 011.502-2c.882-.508 1.9-.75 2.924-.692 1.66 0 2.845.384 3.556 1.23a5.771 5.771 0 011.107 3.847v.615H87.17v-.538a11.03 11.03 0 00-.158-1.923 1.533 1.533 0 00-.633-1A2.493 2.493 0 0084.878 2a2.417 2.417 0 00-1.58.462c-.187.152-.338.34-.447.551a1.701 1.701 0 00-.186.68 14.01 14.01 0 00-.158 2.076v6.539a6.818 6.818 0 00.474 2.923c.316.615.949.846 1.897.846.374.045.754-.018 1.092-.182.337-.165.617-.422.805-.741a6.908 6.908 0 00.553-3.077v-1.23h-2.292v-1.77h4.584v8.692h-1.58l-.238-2a3.143 3.143 0 01-1.226 1.658 3.288 3.288 0 01-2.014.573 4.046 4.046 0 01-1.899-.352 3.932 3.932 0 01-1.5-1.186zm13.515-4.847L90.805.308h2.371l2.766 8.461L98.63.308H101l-3.873 11.307v6.154h-2.37v-6.154h-.08z"/></g></symbol><symbol id="html-academy"><path d="M13.643.016L13.5 0 0 1.407v24.606L13.5 34 27 26.013V1.407L13.643.016zm11.591 25L13.5 31.956 1.766 25.015V14.93l11.685 6.916.02 1.253-8.017-4.743-.011 1.225 8.046 4.809.02 1.286-8.045-4.758-.01 1.226L13.5 26.95l8.124-4.833V16.91l3.62-2.15-.01 10.256zm0-11.564l-3.22 1.88-1.482.875-7.065-4.187-.011 1.225 6.04 3.573-.053.031-.13.076-.86.492-4.986-2.948-.011 1.225 3.936 2.328-.933.61-.021.012-2.971-1.742-.011 1.225 1.947 1.135-1.988 1.186-11.618-6.872 11.638-6.958 11.8 6.834zm0-1.225L13.44 5.31 1.766 12.22V2.99L13.5 1.764 25.234 2.99v9.237z" fill="#666"/></symbol><symbol id="htmlacademy" viewBox="0 0 60 60"><path fill="#2E368F" d="M30.2 5H30L10.3 7.1v36.2L30 55l19.7-11.7V7.1L30.2 5zm17 36.8L30 52 12.8 41.8V27l17.1 10.2V39l-11.7-7v1.8L30 40.9v1.9l-11.8-7v1.8l11.8 7 11.9-7.1v-7.6l5.3-3.2v15.1zm-.1-17l-4.7 2.8-2.2 1.3-10.3-6.1v1.8l8.8 5.3h-.1l-.2.1-1.3.7-7.3-4.3v1.8l5.8 3.4-1.4.9-4.3-2.6v1.8l2.9 1.7-2.9 1.7-17-10.1 17-10.2 17.2 10zm.1-1.8L29.9 12.8 12.8 23V9.4L30 7.6l17.2 1.8V23z"/></symbol><symbol id="icon-facebook"><path d="M11.5.833H8.75A4.63 4.63 0 005.51 2.15a4.45 4.45 0 00-1.343 3.177v2.697h-2.75v3.595h2.75v7.191h3.666v-7.19h2.75l.917-3.596H7.833V5.327a.89.89 0 01.269-.635.926.926 0 01.648-.263h2.75V.833z" stroke="#666" stroke-width="1.1" stroke-linecap="round" stroke-linejoin="round"/></symbol><symbol id="icon-instagram"><path d="M7.984.063c1.334 0 2.422.015 3.266.046.719.032 1.36.157 1.922.375a3.968 3.968 0 012.312 2.313c.22.562.344 1.203.375 1.922.032.843.047 1.932.047 3.265 0 1.334-.015 2.422-.047 3.266-.03.719-.156 1.36-.375 1.922a3.987 3.987 0 01-.906 1.406 3.987 3.987 0 01-1.406.906c-.563.22-1.203.344-1.922.375-.844.032-1.932.047-3.266.047a91.88 91.88 0 01-3.265-.047c-.719-.03-1.36-.156-1.922-.375a3.987 3.987 0 01-1.406-.906 3.987 3.987 0 01-.907-1.406C.266 12.609.141 11.969.11 11.25a91.735 91.735 0 01-.046-3.266c0-1.333.015-2.421.046-3.265.032-.719.157-1.36.375-1.922a3.98 3.98 0 01.907-1.406A3.987 3.987 0 012.797.484C3.359.266 4 .141 4.719.11A91.733 91.733 0 017.984.063zm0 1.03c-1.385 0-2.515.016-3.39.048-.563.02-1.084.12-1.563.296a2.853 2.853 0 00-1.594 1.594 5 5 0 00-.296 1.563 98.83 98.83 0 00-.047 3.39c0 1.386.015 2.516.047 3.391.02.563.12 1.083.296 1.563.313.75.844 1.28 1.594 1.593.48.177 1 .276 1.563.297.875.031 2.005.047 3.39.047 1.386 0 2.516-.016 3.391-.047a5.015 5.015 0 001.563-.297 2.852 2.852 0 001.593-1.594c.177-.479.276-1 .297-1.562.031-.875.047-2.005.047-3.39 0-1.386-.016-2.516-.047-3.391a5.015 5.015 0 00-.297-1.563 2.853 2.853 0 00-1.594-1.594c-.479-.177-1-.276-1.562-.296a98.803 98.803 0 00-3.39-.047zm0 10.063c.875 0 1.623-.31 2.243-.93.62-.62.93-1.367.93-2.242s-.31-1.622-.93-2.242a3.056 3.056 0 00-2.243-.93c-.875 0-1.622.31-2.242.93-.62.62-.93 1.367-.93 2.242s.31 1.623.93 2.243c.62.62 1.367.93 2.242.93zm0-7.234c1.125 0 2.084.396 2.875 1.187.792.792 1.188 1.75 1.188 2.875s-.396 2.084-1.188 2.875c-.791.792-1.75 1.188-2.875 1.188s-2.083-.396-2.875-1.188c-.791-.791-1.187-1.75-1.187-2.875s.396-2.083 1.187-2.875c.792-.791 1.75-1.187 2.875-1.187zm5.188-.156c0 .26-.094.481-.281.664a.949.949 0 01-.688.273.904.904 0 01-.664-.273.904.904 0 01-.273-.664c0-.271.09-.5.273-.688a.891.891 0 01.664-.281.93.93 0 01.68.289.93.93 0 01.289.68z" fill="#666"/></symbol><symbol id="icon_gift"><path d="M64.016 34.713H14.03c-1.754 0-3.182-1.418-3.182-3.16v-9.469c0-1.742 1.428-3.16 3.182-3.16h49.984c1.754 0 3.18 1.418 3.18 3.16v9.47c0 1.741-1.426 3.159-3.18 3.159zM14.03 21.346a.751.751 0 00-.744.738v9.47c0 .406.334.737.744.737h49.984a.74.74 0 00.743-.738v-9.469a.75.75 0 00-.743-.738H14.03z" fill="#fff"/><path d="M57.045 67.15H20.999c-3.377 0-6.125-2.73-6.125-6.087V33.502c0-.669.546-1.211 1.219-1.211s1.219.542 1.219 1.21v27.562c0 2.02 1.654 3.664 3.687 3.664h36.046c2.032 0 3.686-1.644 3.686-3.664V33.502c0-.669.546-1.211 1.219-1.211.672 0 1.218.542 1.218 1.21v27.562c0 3.356-2.747 6.086-6.123 6.086z" fill="#fff"/><path d="M39.023 67.15a1.215 1.215 0 01-1.22-1.212V33.502c0-.669.547-1.211 1.22-1.211.672 0 1.218.542 1.218 1.21v32.436c0 .67-.545 1.212-1.218 1.212zM23.811 21.342c-3.814-2.054-5.238-6.809-3.173-10.6 2.064-3.79 6.848-5.205 10.665-3.155 5.814 3.13 8.954 11.86 9.084 12.23l-2.3.804c-.029-.082-2.961-8.221-7.944-10.903-2.635-1.416-5.937-.439-7.36 2.177-1.426 2.617-.444 5.9 2.19 7.317l-1.162 2.13z" fill="#fff"/><path d="M54.231 21.342l-1.16-2.13a5.376 5.376 0 002.622-3.208 5.327 5.327 0 00-.431-4.109 5.382 5.382 0 00-3.226-2.604 5.426 5.426 0 00-4.134.427c-4.982 2.681-7.915 10.82-7.944 10.902l-2.3-.803c.131-.37 3.27-9.1 9.084-12.23a7.859 7.859 0 015.99-.617 7.8 7.8 0 014.674 3.772 7.72 7.72 0 01.623 5.952 7.788 7.788 0 01-3.798 4.648zm7.719 29.59H16.093a1.215 1.215 0 01-1.219-1.211c0-.669.546-1.211 1.219-1.211H61.95c.672 0 1.218.542 1.218 1.21 0 .67-.545 1.212-1.218 1.212z" fill="#fff"/></symbol><symbol id="icon_vkontakte"><path d="M.07 1.993c0-.622.423-.957 1.27-1.006l3.26.018c.22 0 .365.091.438.274.336.915.711 1.704 1.127 2.369.416.664.96 1.43 1.63 2.295a.3.3 0 00.285.165.276.276 0 00.24-.128l.067-.201.021-3.164c0-.22-.062-.366-.186-.44-.124-.073-.353-.127-.689-.164-.263-.037-.394-.17-.394-.402a.21.21 0 01.022-.11C7.467.706 8.343.31 9.787.31l1.226-.018c.554 0 1.014.116 1.379.347.364.232.547.598.547 1.098v4.151a.562.562 0 00.284.092c.22 0 .409-.11.57-.33 1.604-1.877 2.472-3.133 2.604-3.767a.29.29 0 01.044-.092c.102-.182.27-.34.503-.475.233-.134.438-.226.613-.274a.507.507 0 01.197-.037h3.392l.219.018c.292 0 .518.116.678.348a.63.63 0 01.12.238c.022.085.037.17.044.256.008.085.011.134.011.146v.128c-.102.5-.36 1.033-.777 1.6-.415.567-.944 1.18-1.586 1.838-.642.659-1.044 1.092-1.204 1.299-.131.146-.197.28-.197.402 0 .098.058.208.175.33l3.195 3.365a.939.939 0 01.263.64c0 .28-.131.512-.394.695a1.826 1.826 0 01-.941.31l-.372.02h-3.327a.794.794 0 00-.087.008.802.802 0 01-.088.01c-.32 0-.62-.116-.897-.348-.102-.098-.788-.817-2.057-2.158a1.107 1.107 0 00-.307-.238c-.058.195-.135.475-.23.841a63.68 63.68 0 01-.207.787l-.066.31c-.146.427-.452.684-.92.769l-.306.018H9.743c-1.21 0-2.418-.463-3.622-1.39-1.203-.927-2.287-2.125-3.25-3.594-.963-1.469-1.86-3.18-2.691-5.13a1.254 1.254 0 01-.11-.53zM13.223 6.73a1.66 1.66 0 01-.831-.21c-.248-.14-.372-.333-.372-.577V1.737c0-.244-.073-.418-.22-.522-.145-.103-.4-.155-.765-.155l-1.248.036c-.627 0-1.101.092-1.422.275.642.256.963.67.963 1.244v3.218a1.06 1.06 0 01-.438.76 1.405 1.405 0 01-.875.301c-.438 0-.774-.177-1.007-.53C5.87 4.925 5.024 3.559 4.469 2.267l-.197-.476-2.91-.018c-.19 0-.296.01-.318.028-.022.018-.033.07-.033.155 0 .11.015.226.044.348l.46 1.024C2.74 5.974 4.07 8.058 5.509 9.583c1.437 1.524 2.848 2.286 4.234 2.286h2.189c.088 0 .153-.021.197-.064.044-.043.08-.125.11-.247l.043-.183.416-1.61c.117-.219.219-.365.306-.438a.86.86 0 01.57-.201c.35 0 .707.176 1.072.53l1.86 1.975c.117.159.24.238.372.238h3.611c.438 0 .657-.091.657-.274a.312.312 0 00-.066-.183l-3.173-3.31c-.248-.257-.372-.531-.372-.824 0-.292.116-.573.35-.841.19-.244.558-.65 1.105-1.216a28.203 28.203 0 001.434-1.591c.408-.494.678-.942.81-1.345l.065-.237a.243.243 0 01-.022-.12c0-.054-.007-.1-.022-.137H17.82a1.199 1.199 0 00-.525.33l-.131.347c-.365.841-1.32 2.14-2.867 3.896a1.672 1.672 0 01-1.073.366z" fill="#666"/></symbol><symbol id="logo-desktop"><g clip-path="url(#clip0)"><path d="M59.883 24.21a25.808 25.808 0 00-8.053-10.552 25.493 25.493 0 00-12.193-5.105 25.409 25.409 0 00-13.093 1.699 25.636 25.636 0 00-10.515 8.05 25.951 25.951 0 00-5.144 12.264 26.04 26.04 0 001.595 13.218 25.817 25.817 0 007.909 10.662 25.5 25.5 0 0012.122 5.272c-.58-2.109-1.17-4.439-1.69-6.91a32.23 32.23 0 004.76 2.572s.12 2.179.28 4.61a25.269 25.269 0 005.33-.474 2.174 2.174 0 010-.767c.29-1.886 1.09-5.286 1.25-7.475a15.335 15.335 0 002.9-3.742l-.06.444c-.55 4.297-1.7 8.887-2.4 10.158-.226.42-.505.81-.83 1.16a25.549 25.549 0 009.941-4.808 25.817 25.817 0 007.021-8.573 26.065 26.065 0 00.87-21.703zm-1.47 3.823c-.44.434-1.35.726-1.5-.585-.15-1.311-.19-2.23-.19-2.23s-1.93-3.46-2.65-3.5c-.72-.04-5.831 3.5-7.181 5.044-1.17 1.301-1.4 1.21-1.4 3.5 0 1.725.22 8.242.1 13.225l-8.15 2.189a63.539 63.539 0 01-7.801 1.735l-1-5.881h-.14l-2.57-13.285s-3.81-1.453-5.21-1.846a3.73 3.73 0 00-4 .635 5.111 5.111 0 00-1.285 1.752 5.153 5.153 0 00-.446 2.132c.212.469.373.96.48 1.463.05.484-1.2.433-2 .433s-.92-1.452-.29-3.157c.492-1.31 1.1-2.574 1.82-3.773a11.971 11.971 0 012.07-2.915s.14-.343 1.25-.242c1.11.1 7.28.434 7.28.434l.05-2.29a141.559 141.559 0 0120.242-1.352v1.846a22.362 22.362 0 018.14-2.017.904.904 0 01.77.393c.34.434 2.41 3.026 2.65 3.4.673.969 1.284 1.98 1.83 3.026a6.32 6.32 0 01-.87 1.856v.01z" fill="#FDC305"/><path d="M56.463 21.86c.47.605.88 1.14 1 1.3.672.97 1.283 1.98 1.83 3.027-.19.64-.48 1.247-.86 1.796-.44.433-1.35.726-1.5-.586-.15-1.31-.21-2.178-.21-2.178s-1.93-3.46-2.65-3.5c-.72-.041-5.83 3.5-7.18 5.043-1.17 1.301-1.4 1.21-1.4 3.5 0 1.513.17 6.708.13 11.328 1.81.202 4.47.707 5.27 1.897 0 0-.29-7.243 7.81-3.45 0 0 .28-9.876 11.46-7.344a43.781 43.781 0 00-13.7-10.834zm-10.531-2.34a92.02 92.02 0 00-1.4-16.675s-.15-1.312-.87-.242a14.475 14.475 0 00-1.2 4.035 70.276 70.276 0 00-12.82.343c-.82-2.775-2.22-4.035-2.89-3.703-.67.333-.75 3.31-.75 3.31l-.33 14.283a141.56 141.56 0 0120.26-1.352z" fill="#F06351"/><path d="M45.352 47.532c.13-1.08.2-2.512.24-4.096l-8.15 2.19a63.531 63.531 0 01-7.8 1.785l1.11 5.044c0 .11 0 .221.07.333a32.13 32.13 0 004.76 2.572 42.347 42.347 0 006.88-4.166v.06a15.333 15.333 0 002.89-3.722z" fill="#E55645"/><path d="M32.002 16.362c-.05-.101 1 .686 1.41.928.41.242.61.424.61.595 0 .171-.26.343-.62.343s-.92-.121-1-.262c-.08-.142.6 0 .94 0h.29a8.112 8.112 0 01-1.63-1.604zm7.5.111s-1 1.291-1.09 1.352c-.09.06-.17.343.19.292a8.025 8.025 0 001.22-.282c.11-.061.07-.202-.12-.182-.19.02-.68.05-1 .111l.85-1.281s.03-.121-.05-.01zm-3.14 6.163a2.31 2.31 0 001.09-1.009c.28-.665 0-.918-.44-1.008a2.432 2.432 0 00-1.75.343c-.39.373-.34.736 0 1.008.337.268.707.491 1.1.666z" fill="#000"/><path d="M36.002 23.907a2.066 2.066 0 01-.46.605 1.721 1.721 0 01-1 .384 2.167 2.167 0 01-1.54-.444 2.004 2.004 0 01-.53-.454 1 1 0 00-.36-.252s.75 4.146 2.57 4.812c1.82.665 2.16-.767 2.21-1.15a5.718 5.718 0 00-.82-3.269c0-.302-.02-.1-.07-.232z" fill="#F06351"/><path d="M34.301 25.057a3.482 3.482 0 01-2.35-1.442.152.152 0 010-.202.14.14 0 01.2 0 3.232 3.232 0 002.11 1.321 2.099 2.099 0 001.64-1.008l.14-.192.1.222s.38.767 1 .807c.62.04 1.06-.424 1.63-1.301a.144.144 0 01.2-.04.145.145 0 01.04.201c-.666.989-1.296 1.463-1.89 1.422a1.541 1.541 0 01-1.12-.736 2.266 2.266 0 01-1.7.948z" fill="#000"/><path d="M36.262 38.635c2.07 0 3.75-1.694 3.75-3.783 0-2.09-1.68-3.783-3.75-3.783-2.072 0-3.75 1.694-3.75 3.783 0 2.09 1.678 3.783 3.75 3.783z" fill="#FDC305"/><path d="M41.232 31.775l-3.13 1.322 1.15-5.68-7.5 9.846 3.13-1.322-1.15 5.69 7.5-9.856zm-7.39 3.864l4.16-5.457-.81 4.035 2-.828-4.19 5.468.81-4.035-1.97.817zm-1.401-1.483c.62 0 1.12-.506 1.12-1.13 0-.624-.5-1.13-1.12-1.13-.618 0-1.12.506-1.12 1.13 0 .624.502 1.13 1.12 1.13zm6.521 4.096c.436 0 .79-.357.79-.797a.793.793 0 00-.79-.797.793.793 0 00-.79.797c0 .44.354.797.79.797zm.96-2.189c.193 0 .35-.159.35-.354a.352.352 0 00-.35-.353.352.352 0 00-.35.353c0 .195.157.353.35.353z" fill="#111"/><path d="M45.882 21.345a57.737 57.737 0 00-5.09 5.256 31.988 31.988 0 01-5.31 4.942c-.22-.534-1.63-1.533-1.63-1.533s-3.14-2.169-5.2-3.873a32.023 32.023 0 01-3.14-3.027l-2-.11a22.646 22.646 0 0012 8.917c.86-.142 3.28-1.887 5.09-3.31a57.904 57.904 0 006-5.96 6.45 6.45 0 001.14-2.018c-1.14.383-1.86.716-1.86.716z" fill="#F06351"/><path d="M65.223 3.53l-8.46 9.523-1.22-2.007L63.693 0l1.53 3.53zm-2.57 13.88l5.54-4.145-.78-3.773-5.4 4.852.64 3.067zm-2.73 32.392l6.13 3.207 3.01-2.36-6.69-2.774-2.45 1.927zM1.95 6.022l3.07-3.39 9.29 9.08-1.22 2.3-11.14-7.99zm5.43 10.4l-4.7-3.157-2.4 3.904 5.15 2.42 1.95-3.167zm6.53 36.588l-4.55 3.379L12.16 60l4.02-4.055-2.27-2.936z" fill="#FDC305"/><path d="M25.931 28.245s-3.81-1.453-5.21-1.846a3.73 3.73 0 00-4 .635 5.11 5.11 0 00-1.285 1.752 5.152 5.152 0 00-.445 2.132c.211.469.372.96.48 1.463.05.484-1.2.433-2 .433s-.92-1.452-.29-3.157A23.1 23.1 0 0115 25.884C9.55 28.75 0 35.367 0 35.367a45.433 45.433 0 018.19.242c5.25.534 5 4.71 5 4.71a38.335 38.335 0 015.63-1.12c2.121-.14 2.271 2.14 2.271 2.14l.53 3.893a18.342 18.342 0 012.65-2.38 6.023 6.023 0 014.38-1.312l-2.72-13.295z" fill="#F06351"/><path d="M85.664 42.367a8.417 8.417 0 01-1.4-5.235v-7.566a8.55 8.55 0 011.38-5.286c.927-1.203 2.51-1.802 4.75-1.795 2.24.007 3.757.535 4.55 1.584a6.82 6.82 0 011.33 4.529v1.775h-4.14v-1.927a10.173 10.173 0 00-.13-1.513 1.7 1.7 0 00-.47-.958 1.556 1.556 0 00-1.15-.373 1.45 1.45 0 00-.868.14c-.269.135-.49.35-.632.616a5.562 5.562 0 00-.34 2.22v9.603c-.045.76.088 1.52.39 2.22a1.478 1.478 0 001.45.736 1.35 1.35 0 001.4-.747 5.94 5.94 0 00.31-2.21v-2.017h4.14v1.745a7.361 7.361 0 01-1.23 4.65c-.88 1.11-2.4 1.655-4.56 1.655-2.16 0-3.85-.605-4.78-1.846zm16.251-19.59h4.74l4 21.184h-3.94l-.71-4.68h-3.32l-.8 4.65h-4l4.03-21.154zm3.65 13.84l-1.26-8.513-1.25 8.513h2.51zm8.16-10.652h-3.24v-3.188h10.72v3.188h-3.2v17.966h-4.29l.01-17.966z" fill="#111"/><path d="M129.616 22.777h8.13v2.2h-5.2v6.99h4.22v2.088h-4.22v7.757h5.25v2.119h-8.18V22.777zm10.541 0h2l6 14.052V22.777h2.44v21.184h-1.87l-6-14.445V43.93h-2.48l-.09-21.154zm13.671 0h8.12v2.2h-5.2v6.99h4.26v2.088h-4.22v7.757h5.22v2.119h-8.18V22.777zm10.53 0h4.22a6.956 6.956 0 014.67 1.322c1 .878 1.49 2.31 1.49 4.297 0 2.69-.863 4.334-2.59 4.933l3 10.602h-2.84l-2.75-9.926h-2.27v9.926h-2.93V22.777zm4 9.08a3.844 3.844 0 002.7-.768 3.614 3.614 0 00.82-2.733 5.95 5.95 0 00-.29-2.018 1.89 1.89 0 00-1-1.09 4.723 4.723 0 00-2.05-.352h-1.29v7l1.11-.04zm10.321 10.51a9.393 9.393 0 01-1.27-5.397v-7.06a13.71 13.71 0 01.5-4.036 4.515 4.515 0 011.74-2.43 5.87 5.87 0 013.36-.848 5.216 5.216 0 012.253.28c.722.258 1.38.672 1.927 1.213a7.108 7.108 0 011.28 4.67v.787h-2.75v-.656a11.691 11.691 0 00-.18-2.34 2.02 2.02 0 00-.76-1.24 2.98 2.98 0 00-1.72-.414 2.504 2.504 0 00-1.81.565 2.587 2.587 0 00-.77 1.493c-.127.83-.184 1.67-.17 2.511v7.859a7.63 7.63 0 00.59 3.49 2.832 2.832 0 002.257 1.058 2.808 2.808 0 001.238-.316c.384-.199.717-.484.975-.833a8.253 8.253 0 00.61-3.682v-1.493h-2.66V33.46h5.3v10.47h-1.81l-.29-2.43a3.723 3.723 0 01-1.4 2.002 3.665 3.665 0 01-2.33.691 4.627 4.627 0 01-2.288-.38 4.668 4.668 0 01-1.822-1.446zm16.02-5.901l-4.53-13.689h2.72l3.21 10.209 3.16-10.209h2.75l-4.5 13.689v7.465h-2.8l-.01-7.465z" fill="#444"/></g></symbol><symbol id="logo-mobile"><g clip-path="url(#clip0)"><path d="M6.07 20.72v-2.26a143.265 143.265 0 0120.17-1.33c0 .6 0 1.21-.06 1.82a25.518 25.518 0 016-1.82A16.67 16.67 0 00.19 20.39l5.88.33zm21.17 3.51c-1.16 1.28-1.39 1.2-1.39 3.45v9.18A16.64 16.64 0 0033.32 23a17.302 17.302 0 00-.32-3.1 33.109 33.109 0 00-5.76 4.33zM6.36 25.72s-3.79-1.44-5.19-1.83A8.541 8.541 0 000 23.61a16.65 16.65 0 008.68 14L6.36 25.72z" fill="#FDC305"/><path d="M26.29 17.12A89.799 89.799 0 0024.89.65S24.75-.64 24 .41a14.22 14.22 0 00-1.2 3.94 70.34 70.34 0 00-12.77.34C9.24 2 7.85.75 7.18 1c-.67.25-.72 3.31-.72 3.31l-.33 14.1a143.211 143.211 0 0120.16-1.29z" fill="#F06351"/><path d="M12.41 14c0-.09 1 .68 1.41.92.41.24.61.42.61.59 0 .17-.27.34-.63.34s-.91-.12-1-.27h1.23A8.34 8.34 0 0112.41 14zm7.48.11l-1.09 1.33c0 .06-.17.35.18.3a7.351 7.351 0 001.22-.29c.11 0 .07-.19-.11-.17-.18.02-.69.05-1 .11l.84-1.26s.07-.13-.04-.02zm-3.14 6.09a2.3 2.3 0 001.09-1c.28-.65 0-.91-.44-1a2.43 2.43 0 00-1.74.34c-.39.36-.34.72-.05 1a5.34 5.34 0 001.14.66z" fill="#000"/><path d="M16.35 21.45a1.92 1.92 0 01-.46.6 1.73 1.73 0 01-1 .38 2.15 2.15 0 01-1.47-.43 2.3 2.3 0 01-.53-.44c-.1-.11-.223-.2-.36-.26 0 0 .75 4.1 2.57 4.75 1.82.65 2.14-.75 2.2-1.13a5.61 5.61 0 00-.82-3.23c-.02-.31-.03-.11-.13-.24z" fill="#F06351"/><path d="M14.71 22.59a3.44 3.44 0 01-2.361-1.466.14.14 0 01.031-.154.14.14 0 01.2 0 3.26 3.26 0 002.11 1.3 2.09 2.09 0 001.63-1l.14-.19.1.21s.37.76 1 .8c.63.04 1.05-.41 1.61-1.28a.14.14 0 01.2 0 .15.15 0 01.05.2c-.64 1-1.27 1.44-1.88 1.4a1.549 1.549 0 01-1.12-.76 2.26 2.26 0 01-1.71.94z" fill="#000"/><path d="M26.24 18.92a58.634 58.634 0 00-5.07 5.19A31.633 31.633 0 0115.88 29c-.22-.53-1.62-1.51-1.62-1.51s-3.13-2.14-5.18-3.82a34.139 34.139 0 01-3.13-3l-2-.11a22.57 22.57 0 0012 8.8c.86-.14 3.27-1.86 5.07-3.26a58.13 58.13 0 005.94-5.89 6.15 6.15 0 001.14-2c-1.1.39-1.86.71-1.86.71z" fill="#F06351"/></g><g clip-path="url(#clip1)" fill="#111"><path d="M91.264 29.538A6.865 6.865 0 0190 25.231v-6.385a6.95 6.95 0 011.186-4.385c.869-1 2.212-1.461 4.188-1.461 1.976 0 3.24.461 4.03 1.308a5.418 5.418 0 011.186 3.769v1.538h-3.873v-1.769a3.691 3.691 0 00-.237-1.538 1.12 1.12 0 00-.456-.473 1.164 1.164 0 00-.65-.143c-.553 0-.948.154-1.106.539a4.846 4.846 0 00-.237 1.692v8.23a3.112 3.112 0 00.316 1.616c.158.385.553.539 1.106.539s.87-.154 1.027-.539c.18-.52.26-1.067.237-1.615v-1.846h3.873v1.538a5.776 5.776 0 01-1.186 3.846c-.79.923-2.133 1.385-4.03 1.385-1.897-.077-3.32-.539-4.11-1.539zm13.989-16.308h4.504l3.32 17.54h-3.636l-.632-3.693h-2.608l-.632 3.692h-3.715l3.399-17.538zm3.24 11.54l-.948-6.847-.949 6.846h1.897zm7.35-8.616h-2.687V13.23h9.404v2.846h-2.687v14.692h-4.03V16.154zm13.909-2.924h6.955v1.847h-4.505v5.77h3.635v1.768h-3.635v6.462h4.505v1.77h-7.034V13.23h.079zm9.009 0h1.739l5.137 11.616V13.231h2.055v17.538h-1.581l-5.216-12v12h-2.134V13.231zm11.302 0h6.954v1.847h-4.504v5.77h3.635v1.768h-3.635v6.462h4.504v1.77h-6.954V13.23zm9.009 0h3.635a6.452 6.452 0 014.031 1.078c.869.692 1.264 1.923 1.264 3.538 0 2.23-.711 3.616-2.212 4.077l2.528 8.77h-2.449l-2.371-8.232h-1.976v8.231h-2.529V13.231h.079zm3.477 7.54a3.523 3.523 0 002.292-.616c.474-.385.711-1.154.711-2.308a4.84 4.84 0 00-.237-1.692 1.975 1.975 0 00-.869-.923 3.69 3.69 0 00-1.739-.308h-1.106v5.77h.948v.076zm8.615 8.692A7.607 7.607 0 01170.057 25v-5.846a12.307 12.307 0 01.395-3.308 3.92 3.92 0 011.502-2 5.27 5.27 0 012.924-.692c1.66 0 2.845.385 3.556 1.23a5.773 5.773 0 011.107 3.847v.615h-2.371v-.538c.003-.645-.05-1.288-.158-1.923a1.533 1.533 0 00-.633-1 2.491 2.491 0 00-1.501-.385 2.417 2.417 0 00-1.581.461 1.734 1.734 0 00-.632 1.231 14.024 14.024 0 00-.158 2.077v6.539a6.816 6.816 0 00.474 2.923c.316.615.949.846 1.897.846.374.045.754-.018 1.092-.182.337-.165.617-.422.805-.741a6.922 6.922 0 00.553-3.077v-1.23h-2.292v-1.77h4.584v8.692h-1.581l-.237-2a3.143 3.143 0 01-1.226 1.658 3.287 3.287 0 01-2.014.573 4.047 4.047 0 01-1.899-.352 3.928 3.928 0 01-1.499-1.186zm13.514-4.847l-3.873-11.307h2.371l2.766 8.461 2.687-8.461H191l-3.872 11.307v6.154h-2.371v-6.154h-.079z"/></g></symbol><symbol id="logo-tablet"><g clip-path="url(#clip0)"><path d="M51.582 20.854a22.231 22.231 0 00-6.936-9.09 21.96 21.96 0 00-10.503-4.396A21.887 21.887 0 0022.865 8.83a22.083 22.083 0 00-9.058 6.934 22.354 22.354 0 00-4.43 10.564 22.432 22.432 0 001.373 11.386 22.238 22.238 0 006.813 9.184 21.965 21.965 0 0010.442 4.54 99.88 99.88 0 01-1.456-5.951 27.756 27.756 0 004.1 2.215s.104 1.877.241 3.971c1.54.027 3.08-.11 4.592-.408a1.874 1.874 0 010-.66c.25-1.625.939-4.553 1.077-6.439a13.212 13.212 0 002.498-3.224l-.052.383c-.474 3.701-1.464 7.655-2.067 8.75a4.845 4.845 0 01-.715.999 22.006 22.006 0 008.563-4.141 22.237 22.237 0 006.047-7.386 22.45 22.45 0 00.749-18.694zm-1.266 3.293c-.38.374-1.163.626-1.293-.504-.129-1.13-.163-1.92-.163-1.92s-1.663-2.98-2.283-3.015c-.62-.035-5.022 3.015-6.185 4.344-1.008 1.121-1.206 1.043-1.206 3.015 0 1.486.19 7.1.086 11.392l-7.02 1.886a54.724 54.724 0 01-6.72 1.494l-.861-5.066h-.12L22.335 24.33s-3.282-1.252-4.488-1.59a3.213 3.213 0 00-3.445.547c-.472.417-.85.931-1.107 1.509a4.437 4.437 0 00-.384 1.836c.182.404.321.826.414 1.26.043.417-1.034.374-1.723.374-.69 0-.793-1.251-.25-2.72a19.929 19.929 0 011.568-3.25 10.312 10.312 0 011.783-2.51s.12-.296 1.077-.21c.956.088 6.271.374 6.271.374l.043-1.972a121.95 121.95 0 0117.436-1.165v1.59a19.265 19.265 0 017.011-1.737.778.778 0 01.664.339c.293.373 2.076 2.607 2.283 2.928a24.365 24.365 0 011.576 2.607 5.44 5.44 0 01-.75 1.599v.008z" fill="#FDC305"/><path d="M48.636 18.83c.405.52.758.981.862 1.12a24.464 24.464 0 011.576 2.607 5.444 5.444 0 01-.74 1.547c-.38.373-1.164.625-1.293-.504-.13-1.13-.18-1.877-.18-1.877s-1.663-2.98-2.283-3.015c-.62-.035-5.023 3.015-6.186 4.344-1.008 1.121-1.206 1.043-1.206 3.015 0 1.304.147 5.779.112 9.758 1.56.174 3.851.609 4.54 1.634 0 0-.25-6.239 6.728-2.972 0 0 .241-8.506 9.872-6.325a37.712 37.712 0 00-11.802-9.333zm-9.071-2.016A79.248 79.248 0 0038.36 2.45s-.129-1.13-.749-.208a12.47 12.47 0 00-1.034 3.475 60.535 60.535 0 00-11.043.296c-.707-2.39-1.913-3.476-2.49-3.189-.577.287-.646 2.85-.646 2.85l-.284 12.304a121.956 121.956 0 0117.452-1.165z" fill="#F06351"/><path d="M39.065 40.943c.112-.93.172-2.163.207-3.527l-7.02 1.885a54.73 54.73 0 01-6.72 1.538l.957 4.345c0 .095 0 .19.06.286a27.764 27.764 0 004.1 2.216 36.485 36.485 0 005.927-3.589v.053a13.208 13.208 0 002.49-3.207z" fill="#E55645"/><path d="M27.566 14.094c-.043-.087.861.59 1.214.8.353.208.526.364.526.512 0 .148-.224.295-.534.295-.31 0-.793-.104-.862-.226-.069-.121.517 0 .81 0h.25a6.99 6.99 0 01-1.404-1.381zm6.46.096s-.861 1.112-.939 1.164c-.077.052-.146.295.164.252a6.911 6.911 0 001.051-.244c.095-.052.06-.173-.103-.156-.164.017-.586.043-.862.096l.732-1.104s.026-.104-.043-.009zm-2.704 5.308a1.98 1.98 0 00.938-.868c.242-.574 0-.791-.379-.87a2.095 2.095 0 00-1.507.296c-.336.322-.293.634 0 .869.29.23.61.423.948.573z" fill="#000"/><path d="M31.011 20.593a1.78 1.78 0 01-.396.522 1.486 1.486 0 01-.861.33 1.866 1.866 0 01-1.327-.383 1.725 1.725 0 01-.456-.39.862.862 0 00-.31-.218s.645 3.572 2.213 4.145c1.568.573 1.86-.66 1.904-.99a4.925 4.925 0 00-.706-2.816c0-.26-.018-.087-.06-.2z" fill="#F06351"/><path d="M29.547 21.584a2.998 2.998 0 01-2.024-1.243.131.131 0 010-.173.122.122 0 01.086-.037.121.121 0 01.086.037 2.785 2.785 0 001.817 1.138 1.806 1.806 0 001.413-.87l.12-.164.087.191s.327.66.861.695c.534.035.913-.365 1.404-1.12a.123.123 0 01.172-.035.125.125 0 01.035.173c-.574.852-1.117 1.26-1.628 1.225a1.328 1.328 0 01-.965-.634 1.954 1.954 0 01-1.464.817z" fill="#000"/><path d="M31.235 33.28c1.784 0 3.23-1.46 3.23-3.259 0-1.8-1.446-3.258-3.23-3.258s-3.23 1.458-3.23 3.258 1.446 3.258 3.23 3.258z" fill="#FDC305"/><path d="M35.516 27.37l-2.696 1.14.99-4.893-6.46 8.48 2.697-1.138-.991 4.901 6.46-8.49zm-6.365 3.33l3.583-4.701-.698 3.476 1.723-.713-3.61 4.71.699-3.476-1.697.704zm-1.206-1.278a.969.969 0 00.965-.974.97.97 0 00-.965-.973.97.97 0 00-.965.973.97.97 0 00.965.974zm5.616 3.528c.376 0 .68-.308.68-.687a.684.684 0 00-.68-.687.684.684 0 00-.68.687c0 .379.304.686.68.686zm.827-1.886a.303.303 0 00.302-.304.303.303 0 00-.302-.305.303.303 0 00-.301.305c0 .168.135.304.301.304z" fill="#111"/><path d="M39.522 18.386a49.73 49.73 0 00-4.384 4.527 27.555 27.555 0 01-4.574 4.258c-.19-.46-1.405-1.32-1.405-1.32s-2.704-1.869-4.48-3.337a27.578 27.578 0 01-2.704-2.607l-1.723-.096a19.507 19.507 0 0010.337 7.681c.741-.121 2.826-1.624 4.385-2.85a49.885 49.885 0 005.169-5.135 5.566 5.566 0 00.982-1.738c-.982.33-1.603.617-1.603.617zM22.337 24.33s-3.282-1.252-4.488-1.59a3.214 3.214 0 00-3.446.547c-.472.417-.85.931-1.107 1.509a4.439 4.439 0 00-.383 1.836c.182.404.32.826.413 1.26.043.417-1.033.374-1.723.374-.689 0-.792-1.251-.25-2.72a20.01 20.01 0 011.568-3.25C8.227 24.764 0 30.464 0 30.464a39.136 39.136 0 017.055.209c4.523.46 4.307 4.058 4.307 4.058a33.033 33.033 0 014.85-.965c1.826-.121 1.956 1.842 1.956 1.842l.456 3.354a15.804 15.804 0 012.283-2.05 5.189 5.189 0 013.773-1.13L22.337 24.33z" fill="#F06351"/><path d="M73.79 36.495a7.25 7.25 0 01-1.206-4.51v-6.517a7.364 7.364 0 011.189-4.553c.798-1.037 2.162-1.553 4.091-1.547 1.93.006 3.236.46 3.92 1.364a5.875 5.875 0 011.145 3.902v1.53h-3.566v-1.66a8.768 8.768 0 00-.112-1.304 1.464 1.464 0 00-.405-.825 1.341 1.341 0 00-.99-.322 1.248 1.248 0 00-1.292.652 4.79 4.79 0 00-.293 1.911v8.273c-.04.654.076 1.31.336 1.911a1.265 1.265 0 001.25.634c.241.035.488-.008.705-.124.216-.115.391-.297.5-.519a5.114 5.114 0 00.267-1.902V31.15h3.566v1.503a6.342 6.342 0 01-1.06 4.006c-.758.955-2.067 1.425-3.928 1.425-1.86 0-3.316-.522-4.117-1.59zM87.788 19.62h4.083l3.446 18.247h-3.394l-.612-4.031h-2.86l-.689 4.005h-3.445l3.471-18.22zm3.144 11.922l-1.085-7.334-1.077 7.334h2.162zm7.03-9.176H95.17V19.62h9.234v2.746h-2.757V37.84h-3.695l.008-15.475z" fill="#111"/><path d="M111.65 19.62h7.003v1.894h-4.479v6.022h3.635v1.799h-3.635v6.682h4.522v1.824h-7.046v-18.22zm9.079 0h1.723l5.168 12.104V19.62h2.102v18.247h-1.611l-5.168-12.442V37.84h-2.136l-.078-18.22zm11.776 0h6.994v1.894h-4.479v6.022h3.67v1.799h-3.635v6.682h4.496v1.824h-7.046v-18.22zm9.071 0h3.635a5.994 5.994 0 014.023 1.138c.861.756 1.283 1.99 1.283 3.702 0 2.317-.744 3.733-2.231 4.249l2.584 9.132h-2.446l-2.369-8.55H144.1v8.55h-2.524v-18.22zm3.445 7.82c.83.081 1.66-.154 2.326-.66a3.115 3.115 0 00.706-2.355 5.12 5.12 0 00-.249-1.738 1.645 1.645 0 00-.862-.938 4.068 4.068 0 00-1.766-.304h-1.111v6.03l.956-.035zm8.89 9.055a8.104 8.104 0 01-1.094-4.65v-6.082a11.857 11.857 0 01.431-3.475 3.894 3.894 0 011.499-2.094 5.056 5.056 0 012.894-.73c.657-.063 1.32.02 1.941.241a4.526 4.526 0 011.66 1.045 6.12 6.12 0 011.102 4.023v.678h-2.368v-.565a10.088 10.088 0 00-.155-2.016 1.742 1.742 0 00-.655-1.069 2.567 2.567 0 00-1.482-.356 2.158 2.158 0 00-1.559.486 2.229 2.229 0 00-.663 1.287 13.042 13.042 0 00-.147 2.163v6.769a6.575 6.575 0 00.509 3.006 2.434 2.434 0 001.944.912 2.426 2.426 0 001.906-.99 7.111 7.111 0 00.526-3.171V30.62h-2.292v-1.799h4.566v9.02h-1.56l-.249-2.095a3.211 3.211 0 01-1.206 1.725 3.158 3.158 0 01-2.007.595 3.985 3.985 0 01-1.971-.328 4.02 4.02 0 01-1.57-1.244zm13.8-5.084l-3.902-11.79h2.343l2.765 8.793 2.722-8.794h2.369l-3.876 11.791v6.43h-2.412l-.009-6.43z" fill="#444"/></g></symbol></svg>