<svg width="458" height="507" viewBox="0 0 458 507" fill="none" xmlns="http://www.w3.org/2000/svg">
<ellipse cx="235.5" cy="252.5" rx="170.5" ry="155.5" fill="#4E0505"/>
<ellipse cx="105.5" cy="122" rx="59.5" ry="63" fill="#4E0505"/>
<ellipse cx="367.5" cy="122" rx="59.5" ry="63" fill="#4E0505"/>
<ellipse cx="236" cy="290.5" rx="62" ry="67.5" fill="#E1E1E1"/>
<ellipse cx="235.5" cy="238.5" rx="27.5" ry="20.5" fill="#100F0F"/>
<ellipse cx="174" cy="206.5" rx="30" ry="25.5" fill="white"/>
<ellipse cx="298" cy="206.5" rx="30" ry="25.5" fill="white"/>
<ellipse cx="184.5" cy="196.5" rx="10.5" ry="11.5" fill="#280505"/>
<ellipse cx="287.5" cy="217.5" rx="10.5" ry="11.5" fill="#280505"/>
<ellipse cx="286.5" cy="223.5" rx="3.5" ry="4.5" fill="#FEFEFE"/>
<ellipse cx="248.762" cy="213.352" rx="17.5" ry="7.5" transform="rotate(-13.403 248.762 213.352)" fill="#E9E7E7"/>
<ellipse cx="188.5" cy="192.5" rx="3.5" ry="4.5" fill="#FEFEFE"/>
<ellipse cx="236" cy="318.5" rx="14" ry="21.5" fill="#BF1C1C"/>
<ellipse cx="106" cy="128" rx="30" ry="31" fill="#605A5A"/>
<ellipse cx="368" cy="128" rx="30" ry="31" fill="#605A5A"/>
<ellipse cx="243.5" cy="223" rx="33.5" ry="9" fill="#FEF408" fill-opacity="0.92"/>
<path d="M228 230L222.44 245.237" stroke="#F1EB60" stroke-opacity="0.92" stroke-width="2"/>
<line x1="245" y1="231" x2="245" y2="245" stroke="#F1EB60" stroke-width="2"/>
<line x1="254.94" y1="227.658" x2="258.94" y2="238.658" stroke="#F1EB60" stroke-width="2"/>
<ellipse cx="217.411" cy="221.659" rx="13.2536" ry="8.50838" transform="rotate(-20.7926 217.411 221.659)" fill="#181811" fill-opacity="0.92"/>
<path d="M229.334 217.132C230.087 219.115 229.54 221.451 227.906 223.659C226.275 225.862 223.599 227.876 220.254 229.146C216.908 230.416 213.57 230.687 210.888 230.121C208.2 229.554 206.241 228.17 205.488 226.186C204.735 224.203 205.281 221.867 206.916 219.659C208.546 217.456 211.222 215.443 214.568 214.172C217.914 212.902 221.251 212.632 223.933 213.197C226.621 213.764 228.581 215.149 229.334 217.132Z" stroke="#FEF408" stroke-opacity="0.92"/>
<path d="M236 215C236.439 215.914 237.261 217.364 237.486 218.375C237.627 219.009 237.97 219.246 238.25 219.875C238.859 221.245 238.75 222.603 238.75 224.097C238.75 225.212 237.24 226.133 236.806 227.111C236.55 227.687 236.402 228.186 235.944 228.694C235.571 229.11 235.764 229.993 235.25 230.25" stroke="black" stroke-linecap="round" stroke-linejoin="round"/>
<path d="M244.25 215C245.274 217.244 247.115 219.18 247.25 221.75C247.31 222.897 248.187 224.081 247.694 225.25C247.161 226.517 246.672 226.876 245.75 227.75C244.895 228.56 244.705 229.863 243.75 230.5" stroke="black" stroke-linecap="round" stroke-linejoin="round"/>
<path d="M253.5 215.75C255.952 218.319 257.546 222.978 256.736 226.625C256.543 227.494 255.262 228.515 254.639 229.139C254.129 229.649 253 230.804 253 231.5" stroke="black" stroke-linecap="round" stroke-linejoin="round"/>
<path d="M263.75 216.75C265.203 218.169 267.821 219.272 268.375 221.375C268.662 222.464 268.75 223.366 268.75 224.5C268.75 225.565 267.88 226.3 267.5 227.25C267.192 228.02 266.033 229.739 265.25 230" stroke="black" stroke-linecap="round" stroke-linejoin="round"/>
<path d="M264 218C267.313 219.479 268.25 221.726 268.25 225.083C268.25 226.471 267.221 229.029 266.25 230" stroke="black" stroke-linecap="round" stroke-linejoin="round"/>
<path d="M273.25 218C274.284 219.379 275.755 221.554 275.194 223.444C274.91 224.405 274.729 226.087 273.75 225.5" stroke="black" stroke-linecap="round" stroke-linejoin="round"/>
<path d="M204.5 226.5C202.923 227.386 201.343 228.153 199.861 229.194C198.739 229.983 197.276 230.138 196.111 230.944C194.517 232.048 192.625 232.456 190.861 233.306C189.72 233.855 188.365 233.73 187.306 234.306C186.009 235.01 184.37 235.573 182.917 235.889C181.518 236.193 180.282 236.877 178.889 237.25C178.268 237.416 176.277 237.696 176 238.25" stroke="black" stroke-linecap="round" stroke-linejoin="round"/>
<path d="M210.25 230C209.387 232.894 208.015 235.625 206.764 238.361C205.974 240.088 205.285 241.779 204.25 243.389C203.611 244.383 203.85 245.264 203.611 246.389C203.136 248.627 202.104 250.58 201.694 252.75C201.463 253.978 200.75 254.923 200.75 256.236C200.75 256.757 200.829 257 200.25 257" stroke="black" stroke-linecap="round" stroke-linejoin="round"/>
<ellipse cx="255.168" cy="226.798" rx="23.5" ry="6" transform="rotate(9.50392 255.168 226.798)" fill="#E9E7E7" fill-opacity="0.92"/>
</svg>
